<?xml version="1.0" standalone="no"?>
<!DOCTYPE svg PUBLIC "-//W3C//DTD SVG 20010904//EN"
 "http://www.w3.org/TR/2001/REC-SVG-20010904/DTD/svg10.dtd">
<svg version="1.0" xmlns="http://www.w3.org/2000/svg"
 width="201.000000pt" height="201.000000pt" viewBox="0 0 201.000000 201.000000"
 preserveAspectRatio="xMidYMid meet">
<metadata>
Created by potrace 1.11, written by Peter Selinger 2001-2013
</metadata>
<g transform="translate(0.000000,201.000000) scale(0.100000,-0.100000)"
fill="#000000" stroke="none">
<path d="M1415 1864 c-14 -15 -25 -31 -25 -35 0 -5 -7 -9 -15 -9 -9 0 -18 -6
-21 -14 -3 -8 -18 -17 -33 -21 -15 -3 -35 -18 -45 -36 -9 -16 -21 -27 -25 -25
-4 3 -15 -8 -25 -24 -20 -35 -20 -29 -7 -62 13 -34 0 -44 -54 -43 -42 1 -65
-13 -65 -39 0 -9 -5 -16 -11 -16 -5 0 -7 -4 -4 -10 3 -5 1 -10 -6 -10 -7 0 -3
-9 9 -20 12 -12 22 -23 22 -25 0 -3 -20 -25 -45 -49 -25 -25 -45 -51 -45 -57
0 -7 -3 -10 -6 -6 -8 8 -34 -18 -34 -33 0 -6 -4 -9 -8 -6 -5 3 -15 -4 -23 -15
-8 -12 -26 -30 -41 -40 l-27 -20 4 30 c8 65 -48 144 -96 136 -9 -2 -46 -13
-83 -25 -52 -18 -68 -28 -72 -47 -4 -14 -1 -30 9 -41 15 -17 27 -59 30 -101 1
-13 16 -39 32 -56 25 -27 35 -32 62 -28 24 4 34 1 39 -11 7 -19 -37 -82 -63
-90 -10 -3 -29 -22 -42 -41 -25 -37 -39 -43 -58 -24 -9 9 -9 16 0 30 13 20 -5
64 -30 73 -17 7 -59 -19 -67 -41 -7 -17 36 -109 69 -147 35 -41 63 -41 124 -1
54 36 70 35 71 -2 0 -10 60 -146 76 -175 3 -4 -20 -24 -50 -45 -31 -21 -58
-46 -62 -57 -3 -10 -21 -38 -39 -62 -19 -24 -53 -93 -76 -153 -53 -138 -70
-150 -192 -141 -38 3 -57 -9 -57 -38 0 -14 55 -41 128 -64 23 -7 42 -16 42
-20 0 -15 47 -8 63 10 8 9 21 38 27 65 7 26 27 67 46 91 18 24 47 76 65 115
35 77 63 98 95 67 17 -18 19 -17 85 31 55 39 60 40 77 13 7 -12 18 -20 25 -19
24 3 33 -2 83 -39 50 -37 87 -52 227 -87 47 -12 73 -24 83 -40 16 -24 21 -78
10 -111 -4 -14 0 -26 15 -40 20 -18 21 -18 50 15 16 19 32 46 35 60 3 14 12
47 19 72 7 25 10 50 7 56 -8 10 -94 37 -121 36 -9 0 -45 17 -81 38 -36 22 -90
46 -118 54 -46 14 -52 19 -46 37 3 11 2 23 -4 27 -21 13 -92 126 -92 146 0 11
20 62 45 113 25 50 45 100 45 111 0 25 -10 52 -19 47 -3 -1 -19 13 -36 32 -16
20 -25 34 -20 31 6 -3 24 -11 40 -19 62 -30 85 -68 89 -142 2 -29 9 -54 17
-59 20 -12 29 -11 29 4 1 6 3 93 5 192 2 99 7 203 10 230 4 28 8 66 9 85 1 41
13 52 38 39 16 -8 19 -5 24 21 4 17 11 33 15 36 17 10 9 37 -19 64 -31 29 -38
60 -14 60 13 0 51 35 53 49 7 58 7 131 -1 136 -6 4 -6 15 0 30 7 17 6 25 -1
25 -7 0 -9 10 -4 28 20 80 17 87 -20 46z m-125 -564 c0 -5 -5 -10 -11 -10 -5
0 -7 5 -4 10 3 6 8 10 11 10 2 0 4 -4 4 -10z m-273 -16 c-3 -3 -12 -4 -19 -1
-8 3 -5 6 6 6 11 1 17 -2 13 -5z m288 -13 c3 -5 2 -12 -3 -15 -5 -3 -9 1 -9 9
0 17 3 19 12 6z m-355 -15 c0 -3 -4 -8 -10 -11 -5 -3 -10 -1 -10 4 0 6 5 11
10 11 6 0 10 -2 10 -4z m125 -26 c3 -5 1 -10 -4 -10 -6 0 -11 5 -11 10 0 6 2
10 4 10 3 0 8 -4 11 -10z m-121 -25 c-3 -7 -15 -10 -30 -7 -33 6 -30 17 5 18
20 1 28 -3 25 -11z m89 -25 c3 -12 0 -20 -8 -20 -14 0 -27 25 -18 34 11 11 21
6 26 -14z m228 -2 c23 -26 23 -27 0 -21 -11 3 -21 13 -24 24 -7 25 1 24 24 -3z
m-104 -34 c-3 -3 -12 -4 -19 -1 -8 3 -5 6 6 6 11 1 17 -2 13 -5z m23 -32 c0
-14 -11 -21 -26 -15 -8 3 -11 9 -8 14 7 11 34 12 34 1z m101 1 c0 -5 2 -17 4
-28 4 -20 4 -20 -11 -1 -8 11 -14 23 -14 28 0 10 20 11 21 1z m-10 -65 c9 -17
8 -17 -25 0 -33 16 -35 20 -27 62 2 6 37 -38 52 -62z m9 -59 c0 -6 -4 -7 -10
-4 -5 3 -10 11 -10 16 0 6 5 7 10 4 6 -3 10 -11 10 -16z m-196 -52 c17 -13 18
-17 3 -73 l-15 -59 -16 38 c-18 40 -27 93 -18 102 9 9 27 6 46 -8z"/>
</g>
</svg>
